<?xml version="1.0" encoding="UTF-8" standalone="no"?>
<svg
   xmlns:dc="http://purl.org/dc/elements/1.1/"
   xmlns:cc="http://creativecommons.org/ns#"
   xmlns:rdf="http://www.w3.org/1999/02/22-rdf-syntax-ns#"
   xmlns:svg="http://www.w3.org/2000/svg"
   xmlns="http://www.w3.org/2000/svg"
   xmlns:sodipodi="http://sodipodi.sourceforge.net/DTD/sodipodi-0.dtd"
   xmlns:inkscape="http://www.inkscape.org/namespaces/inkscape"
   version="1.0"
   width="2000"
   height="2000"
   viewBox="0 0 1500.0001 1500"
   preserveAspectRatio="xMidYMid meet"
   id="svg4819"
   sodipodi:docname="cabron.svg"
   inkscape:version="0.92.2 5c3e80d, 2017-08-06">
  <metadata
     id="metadata4825">
    <rdf:RDF>
      <cc:Work
         rdf:about="">
        <dc:format>image/svg+xml</dc:format>
        <dc:type
           rdf:resource="http://purl.org/dc/dcmitype/StillImage" />
        <dc:title></dc:title>
      </cc:Work>
    </rdf:RDF>
  </metadata>
  <defs
     id="defs4823" />
  <sodipodi:namedview
     pagecolor="#ffffff"
     bordercolor="#666666"
     borderopacity="1"
     objecttolerance="10"
     gridtolerance="10"
     guidetolerance="10"
     inkscape:pageopacity="0"
     inkscape:pageshadow="2"
     inkscape:window-width="1894"
     inkscape:window-height="1013"
     id="namedview4821"
     showgrid="false"
     units="px"
     inkscape:zoom="0.2599734"
     inkscape:cx="1162.6667"
     inkscape:cy="1042.4143"
     inkscape:window-x="10"
     inkscape:window-y="29"
     inkscape:window-maximized="0"
     inkscape:current-layer="svg4819" />
  <g
     id="g4872"
     transform="matrix(1.0271854,0,0,1.0271854,-146.54139,-89.99949)">
    <path
       d="m 1269.5,116 c -4.7,1.5 -8.9,1.9 -19.6,1.9 -9.7,0 -14.9,0.5 -18,1.6 -3,1 -8.3,1.5 -16.5,1.5 -7.8,0 -13.8,0.5 -17,1.5 -2.8,0.8 -8.8,1.5 -13.9,1.5 -5.5,0 -11.2,0.6 -14.5,1.7 -3.3,0.9 -10.1,1.7 -16.7,1.9 -6.5,0.2 -12.9,1 -15.5,1.9 -2.7,0.9 -8,1.5 -14.4,1.5 -6.4,0 -11.7,0.6 -14.4,1.5 -2.7,0.9 -7.9,1.5 -14.1,1.5 -6.5,0 -11.5,0.6 -14.6,1.6 -2.6,0.9 -8.6,1.8 -13.3,1.9 -4.7,0.1 -10.1,0.9 -12,1.7 -1.9,0.8 -6.4,1.6 -9.9,1.7 -3.6,0.1 -8,0.9 -9.9,1.7 -1.9,0.8 -4.8,1.4 -6.4,1.4 -3.4,0 -19.3,3.5 -25.8,5.7 -2.5,0.8 -10.3,3.5 -17.4,5.9 -7.1,2.4 -16.1,6.2 -20,8.6 -9.4,5.6 -23,15.3 -28.5,20.3 -8.8,8.1 -23.6,29.6 -32.4,47.1 -4.8,9.6 -27.3,65.3 -38.5,95.4 -3.8,10.2 -8.3,21.9 -10,26 l -3.2,7.5 -13.2,-0.3 -13.3,-0.3 -1.7,4.3 c -10.5,27.3 -17.4,43 -29.6,67.4 -16.8,33.5 -39.4,63.6 -56.6,75.3 l -4.8,3.3 0.3,-8.8 c 0.5,-10.2 2.5,-15.4 11.6,-28.6 2.9,-4.3 4.9,-7.9 4.5,-7.9 -3,-0.5 -5.8,1.3 -13.5,8.9 -9.1,9.1 -16.1,19.3 -21.7,31.7 -3.7,8.3 -4.4,7.8 -6.7,-4.8 -1.1,-6.3 -1.3,-12.2 -0.8,-25.2 l 0.7,-17 -6.1,12.2 c -3.3,6.7 -6.5,13.9 -7,16 -0.6,2.2 -1.1,10.7 -1.2,19.1 -0.1,10.7 -0.4,15.2 -1.3,15.3 -0.6,0 -4.2,0.4 -8.1,0.8 -5.4,0.6 -7.8,0.5 -10.5,-0.6 -1.9,-0.8 -7.7,-3 -12.8,-4.9 -12.7,-4.6 -15.1,-6 -35.1,-19.4 -9.7,-6.5 -21.4,-14 -26.1,-16.6 -8.1,-4.7 -8.7,-4.9 -16.1,-4.9 -7.4,0 -7.9,0.2 -11.1,3.2 -1.9,1.8 -4.2,3.3 -5.3,3.3 -2.3,0 -23.6,-21 -31.7,-31.2 -3.4,-4.3 -7.1,-8.1 -8.2,-8.4 -1.2,-0.4 -7.7,-6.2 -14.6,-12.9 -12.9,-12.6 -18.2,-16.6 -30.8,-22.9 l -7.3,-3.7 h -19.2 c -25.3,0 -32.4,1 -50.8,7.2 -4.8,1.6 -9.6,2.9 -10.6,2.9 -1.1,0 -9.1,2.5 -17.9,5.6 -8.7,3 -25.6,8.5 -37.4,12.1 -24.5,7.4 -59.1,18.9 -63.3,21 -1.6,0.8 -6.1,2.3 -10,3.3 -15.7,4.1 -46.3,18.4 -60.4,28.2 -24.1,16.8 -30.3,22.7 -40,38.3 -7.5,11.9 -11.4,20.6 -15.6,34.5 -4.9,16.2 -5.7,23 -6.6,52.5 -0.7,20.7 -0.6,27.8 0.6,35 0.7,4.9 1.6,13.3 1.9,18.5 0.3,5.2 1.2,10.9 2,12.7 0.8,1.7 1.4,6.1 1.4,9.8 0,3.8 0.6,7.8 1.5,9.4 0.8,1.6 1.9,6 2.4,9.7 1.5,11 3.6,18.8 9.9,37 6.7,19.5 10.5,27.2 21.4,43.4 9.8,14.4 14.4,19.2 29,29.6 11.1,7.9 12.4,8.5 25,12.3 20.5,6.1 28.5,7.8 39.1,8.5 5.3,0.3 10.7,1.1 12,1.8 3.6,2.1 45.9,1.8 56.7,-0.4 5.8,-1.2 12.3,-1.7 20.5,-1.6 9.3,0.2 13.1,-0.1 16.8,-1.5 3,-1.1 7.7,-1.7 12.7,-1.7 4.3,0 10.5,-0.7 13.7,-1.5 3.1,-0.8 8.6,-1.5 12,-1.5 4.7,0 6.5,-0.4 6.9,-1.5 0.4,-0.8 1.4,-1.5 2.4,-1.5 2.9,0 15.9,-5.9 24.8,-11.2 13.5,-8.1 24,-16.4 36.3,-28.7 10.4,-10.4 25.5,-28.9 24.4,-29.9 -0.5,-0.6 -3.2,0.5 -23.5,9.3 -9.1,4 -19.9,8.5 -24,10 -11.8,4.2 -45.5,12.2 -56.5,13.4 -5.5,0.6 -12.2,1.5 -15,2.1 -2.7,0.5 -16.1,0.9 -29.7,0.9 -21.4,0.1 -24.8,-0.1 -24.8,-1.4 0,-1.2 -1.7,-1.5 -9.3,-1.5 -5.5,0 -11.2,-0.6 -13.8,-1.5 -2.4,-0.8 -9.1,-2.4 -14.9,-3.6 -6,-1.2 -15.8,-4.3 -22.7,-7.1 -11.1,-4.5 -12.8,-5.6 -17.5,-10.7 -4.6,-5.1 -11.8,-17.7 -11.8,-20.8 0,-0.7 -2.1,-6.3 -4.6,-12.5 -12.2,-29.7 -16.5,-47.6 -16.5,-69.1 0,-13.2 1.5,-21.8 4.8,-27.8 1.3,-2.5 6.4,-8.5 11.1,-13.2 8.1,-8 9.6,-9 21,-14.2 6.8,-3.1 15.3,-6.3 19,-7.2 3.7,-0.9 11.9,-3.2 18.2,-5 6.3,-1.9 16.2,-4.1 22,-4.9 5.8,-0.9 11.7,-2.2 13.2,-3 1.4,-0.8 4.8,-1.4 7.5,-1.4 2.6,0 6.4,-0.5 8.3,-1 1.9,-0.6 7.5,-1.5 12.3,-2 4.9,-0.6 10.2,-1.7 11.7,-2.5 1.6,-0.8 5.3,-1.5 8.3,-1.5 3,0 7.1,-0.7 9,-1.5 2,-0.8 5.2,-1.5 7,-1.5 1.9,0 5.2,-0.6 7.3,-1.4 2.2,-0.7 6.3,-1.6 9.3,-2 3,-0.4 9.1,-1.6 13.5,-2.8 13.4,-3.4 15.4,-3.4 23.7,0.2 6.5,2.8 9,4.8 19.6,15.3 l 12.3,12.2 v 7 c 0,4.9 0.5,7.8 1.6,9.5 3,4.5 10.8,12.1 16.8,16.3 3.2,2.3 5.3,4.3 4.6,4.5 -1.8,0.6 -9.9,-0.8 -10.5,-1.9 -0.4,-0.5 -5.2,-0.9 -10.8,-0.9 -6.7,0 -12.2,-0.6 -15.7,-1.7 -3.5,-1 -9.6,-1.7 -17,-1.8 -7.5,-0.2 -12.7,-0.7 -15,-1.7 -2,-0.8 -7,-1.6 -11.5,-1.6 -4.4,-0.1 -12.7,-0.8 -18.5,-1.6 -5.8,-0.8 -13.5,-1.8 -17.2,-2.1 -6.7,-0.6 -15.8,0.2 -15.8,1.4 0,1.2 10.5,18.2 16.7,26.9 8.3,11.6 14.9,19.3 18.7,21.6 1.7,1.1 6.1,4.6 9.7,7.7 9.2,8 25,17.5 37.9,22.6 l 2.5,1 -3.7,1.8 c -2,1 -3.5,2.2 -3.2,2.7 0.3,0.4 3.5,0.8 7.1,0.8 h 6.5 l -2.1,3.6 c -1.2,2 -2,3.9 -1.7,4.1 0.4,0.4 8.9,-2.1 15.4,-4.5 0.9,-0.3 1,0.2 0.2,2.3 -0.5,1.4 -1,3.1 -1,3.6 0,1.4 9.8,1.1 19,-0.7 4.5,-0.8 8.4,-1.3 8.7,-1 0.6,0.5 -3.7,4.8 -7.8,7.9 -2.4,1.7 -2.4,1.7 2.6,1.1 2.8,-0.4 8.7,-1.7 13.3,-2.9 6.2,-1.8 8.2,-2 8.2,-1 0,0.7 -1.6,1.6 -3.5,1.9 -1.9,0.4 -3.5,1.1 -3.5,1.6 0,0.5 -1.4,2.5 -3.1,4.5 -1.7,1.9 -2.8,3.5 -2.4,3.5 0.9,0 20.2,-9.7 24.4,-12.3 2.2,-1.3 3.1,-1.6 2.6,-0.6 -2.7,4.5 -5.5,7.3 -10.4,10.6 -6,4 -13.1,10.2 -13.1,11.5 0,1.1 7.7,-2.6 22,-10.8 14.5,-8.3 22.5,-12.4 24,-12.4 1.5,0 -6.2,11.3 -13.3,19.2 l -5.9,6.8 h 3.2 c 2.8,0 5,-1.7 16,-12.5 7,-6.9 13,-12.5 13.4,-12.5 1.4,0 -3.9,8.8 -7.9,13 -3.9,4.1 -9.6,14.6 -7.6,13.8 0.5,-0.2 7.9,-7.1 16.5,-15.5 8.6,-8.4 16.5,-15.7 17.6,-16.3 1.7,-0.9 1.8,-0.7 1.4,2.7 -0.3,2.1 -3.2,9.2 -6.5,15.8 -3.2,6.6 -5.9,12.9 -5.9,14.1 0,1.2 -1.1,2.6 -2.5,3.4 -3.5,1.9 -3.1,3 0.9,3 3.2,0 3.7,-0.5 7.4,-7.3 2.2,-3.9 7.3,-11.3 11.3,-16.2 4,-5 8.8,-11.4 10.6,-14.3 1.8,-2.8 3.6,-5.2 3.9,-5.2 0.3,0 2.7,0.9 5.4,2.1 4.3,1.9 5.1,2.7 7.5,8.2 2.5,6 6,10.7 7.7,10.7 1.9,0 0.5,-5.6 -3.3,-13.1 -5.7,-11.5 -8.9,-23.2 -8.9,-32.7 l 0.1,-7.7 2.3,4.5 c 1.3,2.5 2.9,7.9 3.6,12 2.1,13.5 3.9,19.7 8.1,29 2.7,6.2 3.9,9.9 3.5,11.5 -0.4,1.5 -4.5,5.5 -10.4,10.2 -14.6,11.6 -20.7,17.2 -26.1,23.8 -10.5,13 -14.1,22.4 -14.1,37.5 -0.1,5.8 -0.5,12.3 -1,14.5 -0.4,2.2 -1.6,7.8 -2.5,12.5 -1.7,9 -6.5,22.9 -11.8,34.6 -3.1,7 -3.3,7.2 -10.5,10.8 -14.2,7 -37.2,25.1 -47.8,37.5 -12.1,14.1 -19.2,29.4 -23.7,50.6 -1.8,8.9 -2,13.3 -2,38.6 0.1,23.5 0.4,29.2 1.7,32.3 1.2,2.9 1.5,7.6 1.5,21.9 0,13 0.4,20 1.5,24.7 1.2,4.9 1.6,12.3 1.6,29.6 0,17.5 0.4,24.3 1.5,28 0.8,2.7 1.5,8.7 1.6,13.4 0,4.7 0.4,11.9 0.8,16 0.6,5.6 0.5,7.9 -0.5,9 -6.2,7.4 -9.9,26.6 -7.6,40 0.7,3.9 1.2,14.7 1.2,24.1 0,12.8 0.4,17.8 1.5,20.6 1.2,2.7 1.5,8 1.5,23.3 0,14.6 0.4,21 1.5,24.6 2.2,7.2 2.2,79.2 0,85.4 -0.8,2.3 -1.5,6.3 -1.5,8.9 0,10.8 -8.5,35.7 -18.3,53.8 -4.6,8.4 -17.8,22.9 -30.2,33.3 -15,12.5 -36.4,25.2 -53.5,31.8 -3,1.2 -9.5,3.8 -14.5,5.8 -14,5.7 -25.2,9.3 -34.8,11.1 -6.8,1.4 -8.7,2.1 -8.5,3.3 0.3,1.3 4.8,1.5 34.9,1.8 30.7,0.3 35.1,0.1 39,-1.4 3.1,-1.2 8.8,-1.9 19.4,-2.3 9.1,-0.4 15.9,-1.1 17.2,-1.9 1.2,-0.6 5.5,-1.2 9.7,-1.2 4.1,0 9.5,-0.6 11.8,-1.4 2.4,-0.8 7.5,-1.7 11.3,-2 7,-0.7 31.1,-6.2 39.5,-9.2 2.5,-0.8 11.9,-4 20.9,-6.9 16.7,-5.5 43.9,-18.1 55.1,-25.5 3,-2 6,-4 6.7,-4.4 2.2,-1.3 -2,8.2 -5.9,13.5 -3.2,4.1 -5.1,9.9 -3.3,9.9 0.2,0 3.7,-1.5 7.7,-3.4 4,-1.9 10,-3.9 13.3,-4.4 9.5,-1.6 15.9,-3.5 16.8,-4.9 0.4,-0.7 1.4,-1.3 2.2,-1.3 2.6,0 34.2,-10.8 48.1,-16.5 20,-8.1 39,-18.5 50.8,-27.8 l 3.9,-3.1 -4.6,8.5 c -4.3,7.8 -7.7,18.3 -6.3,19.6 0.3,0.3 4.9,-1 10.3,-2.9 5.4,-2 19.9,-7 32.3,-11.3 12.4,-4.2 31.5,-11.2 42.5,-15.6 29,-11.4 69.5,-31.7 86.5,-43.3 8.7,-5.9 22.5,-19.2 26.3,-25.3 l 2.7,-4.3 v -27.2 c 0.1,-19.9 0.5,-29.1 1.5,-33.8 0.8,-3.6 1.4,-8.2 1.5,-10.3 0,-4.5 3.1,-11 7.3,-15.4 2.8,-3 3.6,-3.3 9.2,-3.3 6,0 6.1,0 8.5,4 1.4,2.2 2.8,4 3.1,4 1.7,0 17.8,-43.9 21.5,-58.5 0.8,-3.3 3.2,-11.9 5.3,-19 4.5,-15.2 6.5,-22.4 8.7,-32 0.8,-3.9 3.1,-12.4 5.1,-19 1.9,-6.6 4.4,-14.9 5.4,-18.4 1.1,-3.5 1.9,-8.2 1.9,-10.3 0,-2.1 0.7,-5.5 1.5,-7.5 0.8,-1.9 1.5,-5.7 1.5,-8.4 0,-2.7 0.7,-6.8 1.5,-9.3 0.8,-2.4 1.8,-7.8 2,-12 0.3,-4.1 1.2,-9.1 2,-11 0.9,-2.1 1.5,-6.7 1.5,-11.1 0,-4.5 0.6,-9 1.5,-11.2 1,-2.3 1.5,-6.9 1.5,-13.5 0,-6.8 0.5,-11 1.6,-13.6 1.3,-2.9 1.8,-9.8 2.4,-33.7 0.5,-16.5 1.4,-34.9 2,-40.9 1.6,-14.8 0.8,-71.5 -1,-77.1 -0.9,-2.6 -1.4,-9.3 -1.4,-19.2 l -0.1,-15.3 4,-3.9 c 2.2,-2.1 5,-4.2 6.2,-4.5 l 2.1,-0.7 0.5,27.8 c 0.2,15.3 1,33.8 1.7,41.1 1,10.9 1,15.2 0,23 -0.8,5.4 -1.5,23 -1.7,39.7 -0.4,25.1 -0.7,30.2 -1.9,31.7 -1.3,1.3 -1.6,4.4 -1.5,16 0.1,10.8 -0.2,15.5 -1.5,19.3 -1,3.3 -1.7,9.3 -1.9,17.5 -0.1,7.2 -0.7,13.8 -1.5,15.5 -0.7,1.6 -1.4,5.7 -1.6,9 -0.9,13 -2.6,26.4 -4.4,34.5 -1,4.7 -2.1,12.1 -2.3,16.6 -0.3,4.4 -1.2,9.4 -2,11 -1,2 -1.5,5.7 -1.5,11 0,7.9 -0.5,11 -5.8,32.4 -1.4,5.8 -3.1,13.6 -3.6,17.5 -0.6,3.8 -1.6,8.2 -2.4,9.7 -0.8,1.5 -1.4,4.7 -1.4,7.2 0,2.5 -0.5,5.7 -1.1,7.3 -1.6,4 -3.9,13.5 -5.4,22.3 -2.2,12.3 -4.1,20.4 -5.3,22.7 -0.7,1.2 -1.2,3.6 -1.2,5.3 0,1.7 -0.5,4 -1.1,5.1 -0.5,1.1 -1.6,4.8 -2.4,8.2 -1.6,7.5 -13.9,55.6 -16.5,64.7 -1,3.6 -3.7,12.8 -5.9,20.5 -4.6,15.6 -7.3,27.6 -6.5,28.5 1.8,1.7 6.3,-7.9 8.2,-17.5 0.5,-2.8 2.2,-8.2 3.6,-12.2 3.2,-8.8 7.6,-23.7 7.6,-25.9 0,-0.9 1.5,-5.2 3.4,-9.7 1.8,-4.5 4.4,-12.5 5.6,-17.7 1.3,-5.2 3.2,-11.8 4.3,-14.5 2.1,-5.3 4.2,-12.8 5.9,-21 0.6,-2.8 2.3,-8.6 3.9,-13 2.6,-7.6 4.2,-13.7 9.4,-35.5 3.6,-15.1 7.3,-29.7 10.4,-41 1.6,-5.8 3.1,-14.2 3.4,-18.6 0.3,-4.5 1,-9 1.5,-10.1 0.6,-1 1.5,-4.8 2,-8.4 0.6,-3.5 2.1,-10.5 3.5,-15.4 3,-11 6.7,-29.9 6.7,-34.6 0,-1.9 0.7,-5.2 1.5,-7.4 0.8,-2.2 1.4,-7.7 1.5,-12.1 0,-5.2 0.5,-9.2 1.5,-11 1,-1.9 1.5,-5.8 1.5,-11 0,-4.9 0.6,-9.9 1.6,-12.5 1,-2.8 1.7,-8.6 1.8,-15.9 0.2,-7.8 0.9,-12.7 2,-15.4 1.3,-3.2 1.6,-8 1.6,-29.1 0,-17.2 0.5,-28.3 1.5,-35.1 2.2,-14.6 2.2,-101.2 -0.1,-109.9 -2.1,-8.5 -2.1,-8.6 0.3,-9.5 1.8,-0.8 2.7,0 6.4,5.3 9.9,14.3 27.8,33.6 28.7,30.9 0.1,-0.5 -1.5,-5.2 -3.7,-10.3 -8.4,-20 -20.1,-64.2 -20.1,-76.2 v -3.9 l 5.2,4.7 c 7.5,6.8 12.7,10.1 23.1,15 12.5,5.8 26.5,10.5 31.7,10.5 h 4.3 l -5.4,-3.8 c -7.3,-5.2 -26.1,-19.1 -27.7,-20.5 -2.7,-2.5 -13.9,-19.3 -15,-22.6 -2.5,-7.1 -2,-7.3 7.1,-3.2 9.5,4.4 18.8,6.7 30.2,7.5 4.4,0.3 13,1.3 19,2.2 14.8,2.2 29.2,1.6 35.8,-1.6 2.6,-1.2 4.7,-2.6 4.7,-3 0,-0.7 -10.6,-2 -17.4,-2 -2.2,0 -6.2,-0.7 -9,-1.5 -2.8,-0.8 -10.3,-2.8 -16.6,-4.5 -11.9,-3.1 -28.8,-10.5 -43.8,-19.1 -21.5,-12.4 -42.9,-33.6 -53.7,-53.4 -1.5,-2.8 -3.3,-5.7 -4.1,-6.6 -1.8,-2 -1.8,-3.6 0.3,-10.9 l 1.6,-6 h 6.9 c 3.8,0 8.4,-0.7 10.5,-1.5 2.9,-1.2 10.1,-1.5 42.3,-1.5 38.9,0 55.4,-0.6 52.8,-2.1 -2.9,-1.6 -17.9,-4.9 -22.5,-4.9 -5.7,0 -14.5,-2.4 -16.2,-4.4 -0.9,-1.1 0.3,-1.4 6.8,-1.9 4.3,-0.3 8.9,-1.1 10.2,-1.8 4,-2.1 29,-2.4 41.1,-0.4 5.7,0.9 12.1,1.5 14.3,1.3 l 4,-0.3 -4.5,-2.6 c -2.7,-1.6 -6.9,-2.9 -10.5,-3.3 -3.3,-0.4 -9.8,-1.4 -14.4,-2.2 -4.6,-0.8 -10.3,-1.4 -12.7,-1.4 -4.3,0 -5.4,-1 -3.6,-3.6 0.4,-0.6 3.6,-1.6 7.2,-2.3 3.6,-0.7 7.2,-1.7 8,-2.1 0.9,-0.5 12.8,-1 26.5,-1.1 13.8,-0.1 25.8,-0.4 26.7,-0.7 1.4,-0.3 1,-1 -2,-3.2 -3.7,-2.6 -4.4,-2.8 -18.3,-3.2 -12.5,-0.4 -15,-0.7 -18.9,-2.7 l -4.4,-2.3 3.5,-1.8 c 1.9,-1 5.9,-2.3 8.9,-2.9 15.9,-3.3 34.3,-6.1 40.8,-6.3 6.2,-0.2 7.2,-0.5 7.2,-2 0,-1.7 -1.4,-1.8 -16.7,-1.9 -9.3,-0.1 -17.5,-0.1 -18.4,0 -0.8,0.1 -2.6,-0.2 -3.9,-0.7 -2.2,-0.8 -2.2,-0.9 1.2,-2.9 1.9,-1.1 6.3,-3 9.9,-4.3 10.5,-3.6 39.9,-11 44,-11 2,0 4.4,-0.3 5.3,-0.6 1.9,-0.7 2.2,-3.4 0.4,-3.4 -0.7,0 -4.9,-0.3 -9.3,-0.6 -6.6,-0.5 -9.1,-0.2 -14.3,1.5 -4.4,1.5 -8.3,2.1 -12.9,1.9 -3.9,-0.1 -6,-0.5 -5.2,-1 0.8,-0.5 5.2,-3.1 9.9,-5.9 4.7,-2.8 15.6,-8.6 24.2,-13 8.6,-4.3 16,-8.4 16.4,-9 0.9,-1.5 -8,-0.5 -12.8,1.5 -3.3,1.4 -13.7,3.2 -12.8,2.3 0.3,-0.3 9,-4.9 19.4,-10.2 19.4,-9.9 30.2,-16.2 29.3,-17.1 -0.8,-0.8 -23,5.3 -33.5,9.3 -5.2,1.9 -9.5,3.3 -9.8,3.1 -0.2,-0.2 0.5,-1.7 1.5,-3.3 1.4,-2.3 6.4,-5.3 20.7,-12.4 10.3,-5.2 18.3,-9.6 17.7,-9.8 -0.9,-0.3 -16.1,2.7 -26.8,5.3 -1.4,0.4 -1,-0.4 1.5,-2.6 3.7,-3.2 18.2,-11 20.6,-11 0.8,0 1.4,-0.5 1.4,-1.1 0,-0.6 -0.8,-0.8 -1.7,-0.5 -4.3,1.2 -14.8,1.8 -13.8,0.8 0.6,-0.6 6.9,-4 14,-7.7 12.8,-6.5 12.9,-6.6 7.9,-6 -4.2,0.4 -5.3,0.2 -5.8,-1.1 -0.9,-2.4 -0.7,-8.9 0.3,-9.9 0.5,-0.6 3.2,-5.6 6,-11.3 4.9,-9.6 5.3,-10.2 8.2,-10.2 h 3.1 l -0.3,-10.8 c -0.3,-8.3 -0.1,-10.6 0.9,-10.4 1.7,0.3 2,-1 2.5,-10.1 0.2,-5.7 0,-7.7 -0.9,-7.7 -0.7,0 -6.6,1.3 -13.2,2.9 -6.6,1.6 -14.6,3.2 -17.8,3.6 -3.2,0.4 -9.7,1.4 -14.4,2.2 -6.1,1.2 -14.4,1.6 -29.5,1.5 -17.8,-0.1 -22.1,0.2 -28.4,1.9 -5.7,1.4 -10.8,1.9 -21.2,1.9 -10.9,0 -13.9,0.3 -14.9,1.5 -0.9,1.1 -3.2,1.5 -8,1.5 -17.5,0 -59,11.7 -76,21.4 -9.5,5.5 -23.4,15.2 -26.5,18.6 -2.8,3.1 -3.5,2.4 -2,-2.1 0.8,-2.3 1.5,-5.5 1.5,-7.2 0,-2.8 4.1,-15.3 13.7,-42.2 1.9,-5.5 5.7,-14.4 8.3,-19.7 4.1,-8.4 6,-10.8 13.6,-18.1 l 8.8,-8.4 16.1,-2.6 c 8.8,-1.5 21.9,-3.3 29,-4.2 7.2,-0.9 14.2,-2 15.7,-2.6 1.5,-0.6 6.2,-1.5 10.5,-1.9 4.3,-0.5 9.8,-1.3 12.3,-1.9 4.4,-1 10.3,-2 25,-4.6 11.3,-1.9 20.4,-3.7 40.5,-7.9 3.9,-0.8 8.6,-1.8 10.5,-2.1 1.9,-0.4 6.7,-1.3 10.5,-2.1 26.7,-5.7 57,-11.4 60,-11.4 1.3,0 5,-0.7 8.2,-1.5 3.1,-0.8 8.4,-1.5 11.8,-1.5 3.3,0 8.5,-0.7 11.5,-1.5 8,-2.1 42.2,-2.1 44,0 0.8,1 3,1.5 6.4,1.5 6.4,0 15.1,2.2 21.5,5.5 7,3.5 19.2,13.6 24.6,20.3 7.2,8.9 16.1,28.1 18.4,39.7 1.1,5.3 2.9,11.5 4,13.8 1.3,2.7 2.2,7.2 2.5,12.7 0.3,4.7 1.3,10.7 2.1,13.4 1,3.3 1.5,9.1 1.5,17.4 0,8.3 0.5,14.2 1.6,17.8 2.3,8 1.6,63.8 -0.9,70.2 -5.7,14.9 -38.5,46 -67.2,63.9 -26.6,16.6 -79.6,44.3 -100,52.2 -24.8,9.7 -48.9,16.5 -71.5,20.1 -6.9,1.1 -15.2,2.5 -18.5,3.1 -3.3,0.6 -8.8,0.9 -12.3,0.7 -5.2,-0.3 -6.2,0 -6.2,1.3 0,1.5 -3.3,1.8 -33.2,2.3 -18.3,0.4 -34.6,0.7 -36.3,0.8 -1.6,0.1 -7.3,-0.2 -12.5,-0.6 l -9.5,-0.7 4.6,4.3 c 7.9,7.4 37.2,21.4 64.2,30.7 28.8,9.9 49.7,13.1 85.6,13.1 h 23.5 l 24,-7.1 c 26.6,-7.8 67.8,-21.2 81.4,-26.4 17,-6.5 54.9,-22.8 70.2,-30.1 36,-17.4 59.8,-32.7 79.9,-51.6 5.1,-4.8 9.7,-8.8 10.1,-8.8 0.9,0 11.1,-11.9 19.3,-22.4 5.6,-7.2 17,-30 22,-44.1 5.1,-14.2 7.9,-27.1 10.7,-50 1.6,-12.3 1.1,-53.9 -0.7,-59.9 -0.8,-2.6 -1.6,-8.7 -1.7,-13.5 -0.1,-4.7 -0.8,-9.6 -1.4,-10.8 -0.7,-1.2 -1.5,-5 -1.7,-8.5 -0.7,-7.3 -2,-14.3 -7.1,-35.8 -9.5,-39.9 -19.9,-74.5 -30.6,-101.5 -7.1,-18 -26.8,-57.6 -34.2,-68.9 -19.1,-29.2 -48,-56.3 -77,-72 -14.1,-7.6 -55.3,-19.4 -69.1,-19.7 -3.3,-0.1 -9.3,-1 -13.4,-2 -6.8,-1.7 -11.4,-1.9 -48.5,-1.8 -37.7,0 -41.6,0.2 -47.1,1.9 z m 117.2,23.5 c 34.6,5.6 68.5,26.7 93.9,58.4 21.6,26.9 38.5,57 48.7,86.6 4.2,12.1 8.2,27.3 7.5,28.1 -0.3,0.3 -9.1,-5.1 -19.4,-11.8 -21,-13.7 -38.4,-24.4 -45.6,-27.9 -3.6,-1.7 -4.8,-2.9 -4.8,-4.5 0,-4.3 -3.1,-20.2 -6.2,-31.4 -3.3,-12.3 -11.6,-30.3 -19.3,-41.9 -4.8,-7.3 -16.5,-21.4 -17.2,-20.7 -0.2,0.2 2,5.5 5,11.8 8.2,17.3 15.1,44.4 17.2,67.2 0.7,7.5 0.7,7.9 -1.1,7.2 -12.9,-5.3 -26.4,-9.8 -43.4,-14.5 l -20.5,-5.7 -2.3,-6.5 c -7.6,-21.7 -24.2,-48.1 -39.4,-62.5 -7.9,-7.5 -20.4,-17.4 -22,-17.4 -0.6,0 0.6,2.1 2.6,4.7 19.8,25.9 33.7,53.7 37.1,74.2 l 0.7,4.4 -8.8,-0.7 c -4.9,-0.4 -10.7,-1.1 -12.9,-1.6 -2.2,-0.5 -14.7,-1 -27.7,-1 h -23.7 l -2,-2.9 c -1.2,-1.6 -2.1,-3.5 -2.1,-4.3 0,-2.2 -6.7,-16.8 -10.7,-23.3 -4,-6.5 -15.5,-22.7 -19.4,-27.2 -5,-5.8 -14.8,-13.8 -25.3,-20.9 -6.1,-4 -11.2,-7.1 -11.4,-6.9 -0.6,0.6 5.6,8.5 14.6,18.8 7.8,8.9 17,24.4 23.6,40.1 4.7,10.9 8.6,23.3 8.6,27.2 0,2.5 -3.9,3.9 -15.6,5.4 -12,1.6 -23.7,3.8 -36.5,7.1 -9.1,2.3 -12.1,2.8 -14.2,2 -1.5,-0.6 -2.7,-1.5 -2.7,-2.1 0,-1.8 -6.1,-14.3 -11.1,-22.5 -6.4,-10.8 -16.3,-22.9 -25.6,-31.5 -8.4,-7.7 -30.2,-22.7 -37.5,-25.9 -4.7,-2 -13.8,-3.8 -13.8,-2.8 0,0.4 2,1.8 4.3,3.2 6.8,3.9 35.4,33.7 42,43.6 6.6,10 12.4,22 16.2,33.4 1.5,4.4 3.4,8.6 4.3,9.2 0.8,0.7 1.4,1.5 1.1,1.7 -0.2,0.2 -8.3,2.7 -17.9,5.5 -9.7,2.7 -22.5,6.6 -28.4,8.6 -5.9,2 -10.9,3.5 -11,3.3 -0.2,-0.2 -2.2,-3.9 -4.6,-8.3 -11.1,-20.6 -30.2,-43.7 -45.9,-55.6 -10.7,-8 -45.2,-24.9 -50.9,-24.9 -6,0 -5.4,1.6 2.6,6.2 29.9,17.5 54.9,46 67.8,77.6 4.7,11.5 5.1,13.2 3.1,13.2 -2.2,0 -15.4,6.7 -21.8,11.1 -7.3,4.9 -7.3,4.9 -17.9,-4.6 -18.9,-17 -42.9,-29 -69,-34.7 -10.5,-2.2 -33.8,-3.5 -41.7,-2.3 l -4.8,0.8 8.8,2.2 c 15.7,4.1 28,8.5 42.2,15.5 22,10.7 33.4,19.2 49.7,37 12,13.1 12,12.5 -1.3,39.3 -5.6,11.1 -10.3,20.4 -10.5,20.6 -0.2,0.2 -2.1,-1.2 -4.2,-3 -2.2,-1.9 -8.4,-7.2 -13.8,-11.8 -29.5,-25.2 -58.3,-37.2 -90.1,-37.5 -9.6,-0.1 -13.3,-0.4 -13.3,-1.3 0,-5.5 13.7,-38.6 24.3,-58.3 13,-24.5 28.5,-47.9 37.7,-57 16.2,-16.2 42,-28.3 75.5,-35.4 26.6,-5.7 96.1,-14.9 133.5,-17.6 6.9,-0.5 14.5,-1.3 17,-1.9 2.5,-0.6 10.8,-1.1 18.5,-1.1 7.7,-0.1 17.2,-0.8 21,-1.5 10.9,-2 147.5,-2.1 160.2,0 z M 923,324.4 c 12.1,4.7 25.7,12 39,20.8 15.4,10.3 21.7,16.8 37.3,38.5 l 3.8,5.2 -6.6,3.6 c -3.6,2.1 -11.6,5.9 -17.6,8.6 l -11.1,4.9 h -19.2 -19.2 l -10.9,-5.4 c -12.7,-6.2 -19.2,-11.5 -23.3,-18.9 -5.4,-9.6 -6.7,-15 -6.5,-28.2 0.1,-12.6 2,-22.2 6.3,-32.3 l 2.2,-5 8.1,2.3 c 4.5,1.2 12.5,3.9 17.7,5.9 z M 458.2,410 c 13.2,1.3 19.8,3.6 29.2,9.9 10.3,6.9 26,19.8 34.4,28.4 l 6.3,6.4 -6.3,2.3 c -9.6,3.5 -25.5,11.4 -32.8,16.2 -8.8,5.8 -20.4,17.5 -27.5,27.8 -3.2,4.7 -6.2,8.9 -6.6,9.4 -0.4,0.4 -3.3,-0.9 -6.6,-3.1 -3.2,-2.1 -7.1,-4.5 -8.6,-5.3 -1.6,-0.8 -3.2,-2.1 -3.7,-3 -1.1,-2.1 1.5,-20.3 3.8,-27 3.9,-11.1 7.8,-17.7 21,-35.7 6.8,-9.2 7.9,-10.2 11.4,-10.8 3.6,-0.6 3.8,-0.9 3.8,-4.2 0,-3.9 0,-3.9 -6,1.2 -1.4,1.2 -5.3,3.9 -8.7,5.9 -17.4,10.4 -33.3,32.5 -43.3,60.4 -3.2,8.9 -3.2,9 -7.4,10 -7,1.8 -20.8,3.3 -26.6,3 l -5.5,-0.3 0.3,-9 c 0.3,-6.7 1.3,-12 3.8,-20.5 3.7,-12.2 7.6,-20 18.5,-37.3 3.7,-5.9 6.4,-10.7 5.9,-10.7 -1.7,0 -19,17.2 -24,23.9 -10,13.2 -17,29.2 -20.4,46.6 l -2.2,11 -5.5,1.1 c -7.5,1.5 -18.4,2.3 -19.8,1.5 -1.8,-1.1 -3.4,-12 -2.8,-19.1 0.3,-3.6 1.3,-11.8 2.3,-18.3 1.5,-10 2,-11.7 3.6,-11.7 1.5,0 1.7,-0.5 1.2,-2.8 -1.1,-4.6 -1.9,-4.4 -5.1,1.2 -7.2,12.6 -11.7,28.3 -13,45.6 l -0.8,10.5 -17,4.7 c -9.3,2.6 -17.2,4.8 -17.4,4.8 -0.2,0 -0.1,-8.2 0.2,-18.3 0.5,-14.2 1.1,-20.5 3,-28.6 2.8,-12 1.9,-11.7 -4.4,1.4 -6,12.7 -9,24.2 -9.6,37.7 l -0.6,11.7 -6.6,4 c -5.3,3.1 -20,8.7 -20.7,7.8 0,-0.1 -0.9,-6.2 -1.9,-13.5 -1.7,-12.8 -1.7,-16.9 0.2,-33 0.9,-7.7 -1,-6.6 -4.6,2.7 -4,10.3 -5.9,21.5 -6.7,39.6 l -0.7,14.6 -7.6,5.9 c -4.2,3.2 -8.9,7.2 -10.5,8.9 -1.7,1.7 -3.3,3.1 -3.7,3.1 -0.3,0 -1.8,-1.7 -3.2,-3.8 -2.5,-3.6 -2.5,-4.2 -3.1,-26.1 -0.3,-12.3 -0.7,-22.5 -0.9,-22.7 -0.7,-0.7 -6.9,20.7 -8.4,29 -1.1,6 -1.3,11.8 -0.8,22.5 l 0.6,14.5 -8.3,8 c -4.6,4.5 -9.7,9.1 -11.4,10.3 l -3.1,2.3 -0.7,-10.8 c -0.6,-9.8 0,-18 2.2,-30.5 0.5,-2.6 0.6,-5 0.2,-5.2 -0.3,-0.2 -2.5,3.4 -4.8,8.1 -3.3,6.6 -4.2,9.5 -4.2,13.6 0,3.4 -0.6,5.8 -1.7,7 -1.5,1.7 -1.7,4.4 -1.8,19.6 l -0.1,17.7 -3.9,5.5 c -2.1,3 -4,5.6 -4.1,5.8 -0.1,0.2 -1.4,0 -2.9,-0.4 l -2.8,-0.7 0.7,-15.6 c 1.6,-35.5 6.2,-55.5 18.3,-79.6 10.6,-21.2 20.5,-32.6 36,-41.3 34.9,-19.7 78.3,-38 132.3,-55.9 50.9,-16.9 90,-27.5 105.5,-28.6 2.8,-0.2 5.7,-0.4 6.5,-0.5 0.8,-0.1 5.4,0.2 10.2,0.8 z m 395.1,4.6 c 5.3,10.8 11.7,19.1 23.9,31 18.4,18 35.6,30.2 58.2,41.3 25.5,12.6 46.6,18 72.9,18.8 14.9,0.5 19.4,1.3 15.4,2.9 -2.4,0.9 -23.2,4.2 -23.9,3.8 -0.4,-0.3 -6.5,-1.3 -13.5,-2.3 -20.8,-3.1 -45.7,-12.2 -60.2,-22 -11.9,-8.1 -19.7,-9.8 -11.3,-2.5 5.1,4.5 6.6,7.4 3.8,7.4 -0.8,0 -5.4,-1.5 -10.3,-3.4 -25.7,-9.8 -36.2,-9.6 -58.1,1 -13.4,6.5 -24.5,17.8 -35.7,36.3 -8.4,14 -22.9,45.3 -35.3,76.3 -24.1,60.1 -36.2,79.7 -54.9,89.2 -4.3,2.2 -12.3,2 -21.2,-0.4 -4.1,-1.2 -9.9,-2.2 -13,-2.4 -12.7,-0.9 -32.2,-9.5 -57.6,-25.8 -22.7,-14.4 -32.4,-18.8 -41.7,-18.8 -4.4,0 -5.2,0.4 -9.1,4.4 -6.3,6.6 -8.2,6.7 -17.4,1 -25,-15.6 -44.3,-35.4 -53.5,-54.9 -2.9,-6.3 -3,-7.1 -2.6,-16.3 0.4,-7.3 1.3,-12 3.6,-18.9 12,-35.5 36.1,-63.1 58.7,-67.2 6.4,-1.2 10.9,0.6 33.3,13.2 29.9,16.9 46.1,24 70.7,30.7 6.6,1.9 12.2,3.5 12.4,3.6 0.1,0.2 -1.1,4.5 -2.8,9.6 -10.4,31.4 -11.7,63.8 -3.7,95.8 2.4,9.3 5.8,19 6.8,19 0.5,0 0.6,-13.4 0.2,-29.8 -0.7,-33 0.2,-45.2 4.2,-58.8 3.6,-12.6 7.4,-20.2 13.4,-26.7 5.7,-6.2 8.4,-7.9 20.6,-12.8 26.3,-10.4 47.5,-24.9 69.5,-47.6 17,-17.6 35.4,-44.3 47,-68.8 4.4,-9.1 5.8,-11.1 7.9,-11.4 0.3,-0.1 1.8,2.4 3.3,5.5 z m -315.8,49.9 c 3.5,3.1 6.6,6.7 7,8.2 0.3,1.5 2.2,4.4 4.1,6.5 1.9,2.1 3.4,4.2 3.4,4.6 0,0.5 -4.1,3.9 -9.2,7.8 -5.1,3.8 -12,9.6 -15.4,13 -7.2,7.2 -23.9,31.1 -25.6,36.7 -0.7,2.1 -1.7,4.1 -2.3,4.4 -0.7,0.2 -3.6,-0.6 -6.6,-1.7 -5.2,-2.1 -11.5,-6.7 -20.7,-15.2 l -4.3,-3.9 4.7,-9.2 c 8.8,-17.5 20.2,-31.7 35.3,-43.8 7.9,-6.4 18.7,-12.7 21.9,-12.8 0.8,-0.1 4.2,2.4 7.7,5.4 z m 709.9,8.2 c -10.5,18.1 -31.3,48.6 -41,60.3 -13,15.5 -38,40.1 -53.4,52.4 -33,26.4 -63.6,43 -103.5,56.4 -17.1,5.7 -29.8,8.4 -74.2,15.8 -3.2,0.5 -3.3,0.4 -3.3,-3 0,-3.3 2.4,-23.6 3.6,-30.1 0.5,-2.9 0.4,-2.9 -1.2,-1 -4.5,5.4 -12.4,26.9 -12.4,33.7 0,4.7 4.9,12.1 10.3,15.7 2.7,1.8 5,3.1 5.2,2.9 0.2,-0.2 -1.4,-3.4 -3.6,-7.2 -2.1,-3.7 -3.9,-6.9 -3.9,-7.2 0,-0.9 7.8,2.9 14.5,7.1 19,11.8 38.1,30.6 46.2,45.5 2.8,5.2 6.4,13.1 7.9,17.5 2.7,7.8 2.8,8.6 2.8,29.5 v 21.5 l -3.6,8.2 c -6.2,13.9 -13.7,23.8 -23.6,31.1 -7.2,5.3 -9.1,6 -27.1,9.8 L 975.5,834 965,831.4 c -8.4,-2 -14.7,-4.6 -31.7,-13 -13.2,-6.5 -23.4,-12.3 -27,-15.2 -9.9,-8.1 -10.1,-8.2 -7.6,-4.7 4.1,5.8 14.5,16.5 23.4,23.9 11.2,9.5 20.9,16 35.6,24.1 l 11.5,6.3 -4.3,2.8 c -12.7,7.9 -15.3,9.8 -21.7,15.9 -11.9,11.2 -24.4,31.5 -29.3,47.7 -1.4,4.6 -2.5,6.5 -3.4,6.2 -0.9,-0.4 -1.6,1 -2.3,4.3 -1.9,8.8 -2.4,12.3 -1.9,12.3 0.3,0 1.9,-2.3 3.7,-5 2.2,-3.5 3.1,-5.8 2.7,-7.6 -0.5,-2.9 7.2,-18 15.7,-30.4 9.1,-13.4 23.4,-26.3 36.2,-32.8 4.4,-2.2 18.4,-6.5 18.4,-5.6 0,0.3 -8.2,9 -18.2,19.2 -20.7,21.1 -29,32.5 -38.8,52.7 -10,20.6 -14.9,37.8 -16.6,57.2 -0.5,5.8 -1.1,8.7 -2.4,9.8 -1.6,1.4 -1.8,1 -3.9,-6.2 -1.3,-4.2 -3.8,-10.7 -5.6,-14.4 -4.3,-8.8 -11.6,-21.1 -12.2,-20.5 -0.3,0.2 0,1.3 0.5,2.3 2,3.7 9.1,30.2 10.7,40.2 2.1,12.1 1.6,29 -1,38.6 -4.6,17.4 -6.7,22.6 -12.3,31.1 -10.9,16.6 -23,27.2 -40.8,35.9 -18.5,8.9 -34.9,13.2 -60.4,15.6 -27.9,2.7 -60.8,-3.9 -90.5,-18 -8.1,-3.9 -11,-5.8 -14.8,-10.2 -5.8,-6.6 -11.8,-18.5 -15.1,-30.1 -3.2,-11 -7.6,-39.3 -7.6,-48.4 0,-10.8 2.7,-24.4 8.1,-40.7 6.6,-20.1 9.6,-25.2 27,-44.7 4.9,-5.6 8.1,-10.5 12.2,-19 10.8,-22.5 20.9,-34.8 33.1,-40.8 8.1,-4 11.2,-4 16.4,-0.2 6.2,4.4 6,3.5 6.2,26.4 v 5.8 l 2.8,-0.6 c 11.1,-2.7 22.3,-12.6 34.6,-30.6 16.9,-24.8 29.2,-47.9 36.1,-67.9 3.8,-11.2 8.5,-32.6 8.4,-38.2 0,-3 -0.3,-2.6 -2.4,3.3 -6.7,19.1 -19.5,39.5 -35.4,56 -9.1,9.5 -11.6,11.6 -19.2,15.3 -13.2,6.7 -33.1,10.2 -63,11.1 -12.6,0.4 -18.3,0.1 -24,-1 -4.1,-0.9 -11.6,-2 -16.7,-2.5 -10.8,-1.1 -37.8,-9.5 -38.7,-12.1 -1.7,-4.1 -2.3,-11 -1.4,-15.5 0.5,-2.8 3.6,-10.5 6.9,-17.3 5.7,-11.7 10.5,-18.6 22.8,-33 3,-3.5 5.2,-6.5 5,-6.8 -1,-0.9 -9.7,4.8 -10.4,6.8 -0.3,1.2 -3.6,5.1 -7.1,8.7 -8.5,8.5 -13.3,15.7 -19.8,29.5 -6.7,13.9 -8.6,22.8 -8.5,40.2 0,17.6 1.7,25 7.7,33.9 l 4.8,6.9 0.3,-11 0.3,-11.1 3.5,-3.3 3.4,-3.4 3.8,3.8 3.7,3.8 -4.1,-0.6 c -3.5,-0.5 -4.4,-0.2 -6.4,1.8 l -2.2,2.5 3.6,3.2 c 2.1,1.8 4.6,4.8 5.6,6.8 l 1.9,3.6 0.1,-6.8 c 0,-3.7 0.4,-6.7 0.8,-6.7 0.5,0 1.7,0.9 2.7,2 2.1,2.3 3.3,14.7 3.4,34.5 l 0.1,11.1 -6.3,12.4 c -9.8,19.3 -14.4,35.3 -17.3,60.5 -3.7,31.3 -2.6,54.5 3.6,76 1.6,5.5 4,14.2 5.4,19.2 l 2.5,9.3 h -23.1 c -24.9,0 -26.8,-0.3 -48.8,-7 -17.8,-5.5 -36.5,-18.3 -48.4,-33.1 -10.3,-12.9 -19.1,-32.6 -21.6,-47.9 -4.3,-27.6 5.6,-61.8 24.6,-85.1 12.7,-15.6 36.3,-35.3 46,-38.5 7.6,-2.4 22.2,-8.9 21.8,-9.6 -0.3,-0.4 -2.7,-0.8 -5.3,-0.8 -2.6,0 -5,-0.3 -5.4,-0.6 -0.3,-0.3 1,-4.2 2.9,-8.6 1.8,-4.4 4.3,-11.1 5.5,-14.9 2,-6.6 4.1,-11.9 17.8,-44.1 6.1,-14.3 18.8,-37 27.6,-49.3 5.6,-7.9 14.3,-16.3 20.2,-19.7 5.7,-3.3 11.7,-3.6 20,-1.2 l 5.6,1.6 -2.9,1.8 c -1.6,0.9 -6.4,3.6 -10.6,6 -4.3,2.4 -7.8,4.7 -7.8,5.1 0,1.5 8.7,-2.2 22.5,-9.7 14.2,-7.6 25.8,-12.4 27.1,-11.2 1,1 -1.8,8.8 -10.8,30.8 -9.8,23.7 -12.1,30.3 -14.8,42.5 -2,9.4 -2.8,27.5 -1.1,24.5 0.5,-0.8 3,-9.8 5.6,-20 5.3,-20.9 8,-28.3 16.8,-45.9 5.6,-11.1 7,-13.1 14.7,-20.5 9.6,-9.1 18.6,-14.4 25.7,-15.2 5.1,-0.6 22.9,2.5 40.8,7.1 5.5,1.4 21.8,7.3 36.2,13.1 29.8,11.9 68.3,25.1 85,29 10.4,2.5 11.3,2.9 10.8,4.8 -0.2,1.2 0.2,0.6 1.1,-1.3 0.8,-1.8 1.4,-3.5 1.2,-3.7 -0.2,-0.1 -6.1,-1.9 -13,-3.8 -7.8,-2.1 -15.3,-4.9 -19.5,-7.3 l -6.8,-3.8 12.5,-0.6 c 26.3,-1.4 48.3,-9.2 62.9,-22.5 2.3,-2 4.4,-3.5 4.7,-3.2 0.2,0.3 1.7,6.2 3.2,13.2 1.4,6.9 2.9,12.6 3.2,12.6 0.3,0 1.6,-4.8 2.8,-10.8 2.1,-10.1 2.1,-11.3 0.8,-20.2 -0.8,-5.2 -1.7,-12 -2.1,-15.1 -0.6,-5.3 -0.8,-5.6 -3,-5.1 -1.6,0.3 -4.1,2.7 -7,6.7 -7.8,11 -24.4,24.1 -36.2,28.5 -8.5,3.2 -25.7,7 -34.8,7.6 -8.9,0.7 -21.5,-1 -40.3,-5.2 -12.8,-2.9 -42.2,-12.1 -42.2,-13.2 0,-0.4 0.4,-1.3 0.9,-2 0.9,-1.5 44.5,-16.2 63.1,-21.3 11.9,-3.2 12.2,-3.4 8.5,-4.1 -2.2,-0.4 -7,-0.7 -10.7,-0.7 l -6.6,-0.1 3.4,-8.4 c 5.7,-14 7.6,-22.7 7.6,-35.1 0.1,-15.4 -2.2,-23.2 -12.3,-43 l -8.2,-16 9.9,-9.4 c 10.8,-10.3 27.7,-24.2 32.5,-26.7 1.7,-0.8 5.8,-2 9.1,-2.5 7,-1.1 6.6,-1.4 12.2,9.1 6.1,11.6 10.5,29.3 19.1,77 1.4,7.9 2.8,14.7 3.2,15 0.3,0.3 0.3,-12.3 -0.1,-28.1 -0.5,-26.8 -0.5,-29 1.5,-36 4.3,-15.5 11.3,-23.5 29.9,-34.1 3.6,-2.1 6.1,-3.8 5.5,-3.8 -0.5,0 -3.9,0.5 -7.4,1 -12.2,1.7 -28,-1.7 -44.7,-9.7 -6.9,-3.3 -9,-3.8 -16.6,-4.1 -13.4,-0.6 -25,3.7 -41.6,15.5 -9.1,6.5 -44,41.4 -53.7,53.8 -4.3,5.5 -12.2,15.4 -17.5,22 -5.3,6.6 -15.2,19.4 -22,28.5 -24.6,32.5 -40,45 -56,45 -8.6,0 -22.5,-4 -35.5,-10.2 -6.1,-2.9 -26.5,-13.9 -26.5,-14.2 0,-0.2 2.4,0.1 5.3,0.6 2.8,0.4 10.3,0.9 16.6,0.9 h 11.5 l 9,5.4 c 5,3 11.3,6.2 13.9,7.1 10.4,3.5 22.5,0 33.1,-9.7 7.3,-6.6 22.7,-27.1 27,-35.9 1.8,-3.6 7.2,-13.5 12.2,-22 4.9,-8.5 12.7,-23.6 17.3,-33.5 16.7,-35.9 43.9,-70.7 64.7,-83.1 8.1,-4.7 18,-9 24.4,-10.4 7.5,-1.6 23.6,-1.1 33.3,1 4.8,1.1 12.8,3.6 17.8,5.5 5,2 9.3,3.5 9.5,3.3 0.2,-0.3 -5.7,-4.9 -13,-10.3 -7.4,-5.4 -13.3,-10.2 -13.1,-10.6 1.1,-1.6 10.9,1.6 21.5,7 14.4,7.3 19.4,8.9 33.9,10.1 6.4,0.6 14.4,1.5 17.8,2.1 6,1.1 6.3,1.3 8.4,5.5 l 2.1,4.4 -5,6.8 c -10.6,14.5 -7.5,12.5 15.1,-9.6 10.6,-10.4 22.1,-20.8 25.7,-23.2 9.3,-6.3 27.5,-15.1 42.3,-20.4 17.7,-6.4 28.7,-7.6 70.7,-7.6 46.7,0 65.8,-2.2 85,-9.7 4.1,-1.6 7.7,-2.8 7.9,-2.7 0.2,0.2 -2.7,5.6 -6.5,12.1 z m 252.7,36.9 c 15,25.6 24,70.7 16.9,84.5 -11.9,23.1 -69.3,58.8 -134.5,83.6 -48.4,18.5 -81.5,28.3 -114.1,33.8 -14.2,2.4 -17,2.5 -44.5,2.3 l -29.4,-0.3 4.5,-2.4 c 3,-1.6 7.2,-2.7 12.5,-3.2 4.4,-0.5 15.9,-2.7 25.5,-4.9 61.1,-14.1 99.7,-28.3 146,-53.7 29.1,-16 88.5,-62.1 97.5,-75.7 4.4,-6.5 7.1,-14.5 8.5,-24.9 1.4,-10 0.7,-18.8 -3.1,-41.4 -1.6,-9.4 -2.9,-17.5 -2.9,-18 0.1,-2 12.9,13.2 17.1,20.3 z m -645.5,108 c 6.3,3 9.5,12.8 7.2,21.9 -1.1,4.3 -1.7,5 -4,5.3 -4.7,0.6 -10.4,-5.7 -12.9,-14 l -2.1,-7.1 3.8,-3.8 c 2.1,-2.2 4,-3.9 4.2,-3.9 0.2,0 2,0.7 3.8,1.6 z M 436,657.2 c 12.1,4.5 39.1,11.7 56.5,15 10.9,2.1 14.9,2.3 43,2.3 27.2,0 31.4,-0.2 34.1,-1.7 l 3,-1.7 7.3,7.8 c 4,4.3 8.2,9.2 9.2,10.9 l 2,3 -5.8,1.2 c -3.2,0.7 -7.3,1.7 -9.1,2.2 -1.8,0.5 -8.3,1.4 -14.5,1.8 -6.2,0.5 -13,1.4 -15.2,1.9 -5.8,1.5 -18.3,1.3 -23,-0.4 -2.2,-0.8 -7.2,-1.5 -11.1,-1.5 -10.1,0 -20.8,-2.3 -37.5,-7.8 -11.6,-3.9 -17,-6.5 -27.9,-13 -11.4,-6.8 -15.1,-9.7 -24,-18.7 l -10.5,-10.6 6.5,2.7 c 3.6,1.5 11.2,4.4 17,6.6 z m 186.1,10.3 c 2.1,0.8 5.6,2.7 8,4.5 3,2.2 5,2.9 6.6,2.5 1.8,-0.4 2.3,-0.1 2.3,1.2 0,1.4 1.6,2.3 6.5,3.7 3.5,1 6.6,2.3 6.7,2.8 0.2,0.6 3.1,2.1 6.3,3.4 l 6,2.3 h -4 c -2.8,0.1 -7,-1.4 -15,-5.3 -10.6,-5.3 -20.4,-9.1 -21.1,-8.3 -0.2,0.2 -0.7,4.9 -1.2,10.5 l -0.7,10.1 -9,-6.7 c -9.8,-7.3 -13.5,-12.3 -13.5,-18.3 0,-3.1 0.6,-4 3.7,-6.1 l 3.8,-2.5 5.5,2.5 c 3,1.3 7.1,3 9.1,3.7 z m -375.5,69.1 c 1.7,0.4 2.2,1.8 3.1,8.2 1.4,9.4 4.4,17.6 8.3,23.1 3.8,5.2 17.9,12.2 29.5,14.5 4.4,0.9 13.2,3 19.5,4.7 6.3,1.7 16.2,3.7 22,4.4 5.8,0.8 13.2,1.8 16.5,2.4 3.3,0.6 18.2,1.1 33,1.1 23.6,0 29.4,-0.3 46,-2.6 28.1,-3.9 31.9,-4.3 33.4,-3.5 1.8,1.1 -31.4,11.7 -40.9,13.1 -4.1,0.6 -11.7,2.3 -16.7,3.6 l -9.3,2.5 -48.2,-0.4 -48.3,-0.4 -14.5,-3.1 c -18.1,-4 -20.3,-4.7 -26.8,-8.6 -4,-2.2 -6,-4.3 -7.7,-7.6 -4.9,-9.7 -6.9,-23.4 -5.5,-38.2 1.4,-14.4 1.5,-14.6 6.6,-13.2 z m 392,14.1 c -1,2.6 -27,41.2 -27.8,41.3 -0.3,0 -1.4,-2 -2.3,-4.5 l -1.8,-4.5 4.4,-7.6 c 5.3,-9.3 14.4,-19 21.9,-23.2 6.4,-3.7 6.4,-3.7 5.6,-1.5 z m 375.1,113.5 c 1.1,1.3 2.4,3.2 2.8,4.3 0.4,1.1 1.1,13 1.6,26.5 0.4,13.5 1.5,28.8 2.3,34 2.1,12.8 2,30.2 -0.4,59.3 -1.1,13.3 -2.7,33 -3.5,43.7 -2.1,24.7 -4.1,43.3 -6,53.5 -0.8,4.4 -2.6,14.7 -3.9,23 -3.3,19.9 -14.1,70.5 -17.6,82.5 -1.5,5.2 -4.4,14.7 -6.4,21.1 -2,6.4 -3.6,12.2 -3.6,12.9 0,0.6 -2.9,8.4 -6.4,17.3 -3.5,8.9 -6.6,17.5 -7,19.2 -1.4,6.4 -4.8,13.5 -6.5,13.5 -0.9,-0.1 -2.8,-1.9 -4.4,-4.1 -4.1,-6 -6.9,-6.8 -12.4,-3.9 -9,4.8 -17.8,18 -21.8,32.5 -0.9,3.3 -2.2,7.1 -2.9,8.5 -1.7,3 -7.1,34.5 -8.5,48.6 -1,10.8 -3.6,17.8 -8.3,22.1 -1.2,1.2 -8.1,6 -15.2,10.7 -16.1,10.7 -48.2,26.9 -72.6,36.6 -22.6,9 -52.3,19.8 -53.1,19.4 -0.8,-0.4 0.9,-12.5 2.6,-19.2 0.7,-2.8 1.1,-5.2 0.9,-5.2 -0.2,0 -6.5,4.4 -14.1,9.8 -26.1,18.4 -37.3,25 -58.3,34.2 -9.2,4 -35.6,12.8 -50.6,16.8 l -11.2,3 3.3,-7.3 c 1.9,-4 4.3,-9.2 5.5,-11.5 1.2,-2.3 2,-4.6 1.8,-5.1 -0.2,-0.6 -14.3,6 -31.4,14.5 -17.1,8.6 -31.8,15.6 -32.7,15.6 -0.9,0 -7.6,2.7 -14.9,6.1 -13.7,6.2 -29.3,10.8 -50.1,14.8 -8.9,1.7 -14.7,2.1 -32.4,2.1 h -21.7 l 3,-3.1 c 1.6,-1.7 6,-5.6 9.7,-8.6 23.3,-19.1 43.2,-66.7 45.1,-108.1 0.4,-7.3 1.2,-14.5 1.8,-16 1.9,-4.4 2.1,-60.3 0.3,-67.1 -0.8,-3.1 -1.7,-12.1 -2,-20.5 -0.3,-8.3 -1,-17.1 -1.6,-19.6 -1.3,-5.8 -2.5,-71.9 -1.2,-70.5 0.6,0.5 2.5,5.2 4.3,10.4 1.9,5.2 4.7,11.2 6.4,13.4 3.6,4.7 33.7,25.5 44.8,31 16.4,8.1 65.4,23.7 91.5,29.1 41.7,8.6 97.5,12.9 119.1,9.2 5,-0.9 11.3,-1.6 14,-1.6 6.4,0 42.5,-3.8 48.7,-5.1 6.5,-1.4 66.4,-21.3 70.4,-23.4 5.1,-2.6 9.9,-7.3 17.9,-17.8 9.8,-12.8 16.2,-22.9 21.7,-34.2 5.7,-11.6 20.5,-46.7 26.1,-61.6 9.8,-26.2 22.4,-86.8 25.3,-120.9 0.5,-6.4 1.5,-12.8 2,-14.3 0.7,-1.8 1.1,-15.1 1.1,-36 0.1,-25 0.4,-34.8 1.5,-39.7 1.8,-8.4 1.8,-23.3 0,-44 -1.4,-14.7 -1.3,-23.9 0.1,-30.8 0.3,-1.5 1.2,-2.2 2.7,-2.2 1.3,0 3.3,1 4.4,2.2 z M 992,907.1 c 0,28.1 -0.1,30 -1.7,29.7 -1.4,-0.3 -2.2,-2.4 -3.5,-9.8 -0.9,-5.2 -1.7,-11 -1.7,-12.8 -0.1,-3.7 -2.4,-4.4 -4.1,-1.3 -1.5,2.9 -1.2,6.9 1,14.6 1.2,3.9 2.7,12.4 3.5,19 0.8,6.6 1.9,14.5 2.6,17.5 0.7,3.7 0.9,14.9 0.7,34 -0.4,26.9 -0.6,28.9 -2.9,35.5 l -2.4,7 -0.2,-5.5 c -1.1,-22.9 -5.1,-50.2 -10.9,-74 -3.4,-13.5 -3.6,-15.3 -3.2,-27 0.5,-14.1 2,-18.8 8.1,-25.1 1.9,-2 4,-5.3 4.7,-7.3 1,-3 0.9,-4 -0.6,-6.6 -1.8,-3 -1.8,-3 1.9,-10.5 3.1,-6.4 4.1,-7.5 6.2,-7.5 h 2.5 z m -22,3.1 c -1.8,5 -5.4,9.8 -6.4,8.7 -0.2,-0.2 -0.6,-3.2 -0.9,-6.7 -0.3,-4.8 -1,-6.9 -2.8,-8.8 l -2.3,-2.4 5,-5.2 c 9.5,-9.9 8.9,-9.9 9.2,0.2 0.2,6.9 -0.2,9.9 -1.8,14.2 z m -13,17.9 2.3,13.1 -5.9,23.9 c -3.2,13.2 -6.2,23.9 -6.5,23.9 -1.1,0 -3.6,-8.4 -6.4,-21.5 -1.4,-6.6 -3.1,-13.4 -3.7,-15.1 -0.9,-2.7 -0.7,-4.5 1.5,-11.5 1.4,-4.6 4.9,-13.1 7.7,-18.8 4.8,-9.7 5.2,-10.3 6.8,-8.7 1.3,1.1 2.6,5.7 4.2,14.7 z m 9.9,34.7 c 1.5,3.7 2.1,7.7 2.1,12.9 0,4.1 0.6,10.5 1.4,14.2 4.8,22.1 5.4,31.7 5.1,74.1 -0.3,38 -1,46.3 -6,66.8 -3.2,13 -4.1,15.2 -6,15.2 -1.3,0 -1.5,-3.6 -1.5,-27.9 0,-17.8 -0.4,-29 -1.1,-30.8 -0.6,-1.5 -1.4,-8.4 -1.9,-15.3 -0.4,-6.9 -1.8,-16.9 -2.9,-22.4 -5.1,-23.3 -4.2,-39.5 4,-71.8 1,-4.2 1.9,-10.5 1.9,-14 0,-8.3 2,-8.7 4.9,-1 z m -35.5,12.4 c 0.9,1.2 1.6,3.6 1.6,5.4 0,1.7 0.7,5.3 1.5,8 0.8,2.7 1.5,7.1 1.5,9.9 0,2.7 0.9,7.9 2,11.3 1.8,5.6 1.9,7.4 1,15.1 -0.5,4.8 -1.4,11.1 -2,14 -0.5,3 -1,8 -1,11.3 0,3.2 -0.7,7.5 -1.5,9.5 -0.8,1.9 -1.8,6.8 -2.2,10.7 l -0.6,7.1 -1.9,-4.4 c -1,-2.4 -2.7,-8 -3.9,-12.5 -1.1,-4.4 -3.7,-13.3 -5.6,-19.6 -4.9,-15.4 -4.9,-21.7 0,-40.3 2.1,-7.6 4.2,-14.7 4.7,-15.7 0.6,-1 1,-4.1 1,-6.9 0,-4.4 0.3,-5.1 1.9,-5.1 1.1,0 2.7,1 3.5,2.2 z M 949,1061 c 0,3.6 0.8,8.3 1.6,10.5 1,2.4 1.5,6.7 1.4,10.6 -0.1,4.4 0.6,8.5 1.9,12.3 1.8,5.3 2,8.4 2.1,38.9 0,30.6 -0.1,33.8 -2.1,41.2 -1.1,4.4 -2.4,8.4 -2.9,8.8 -1.9,2 -6,-17.6 -7.6,-36.3 -0.3,-4.7 -1.5,-11.1 -2.5,-14.4 -1.1,-3.2 -1.9,-8 -1.9,-10.6 0,-2.6 -0.7,-6.7 -1.6,-9.1 -1.9,-5.3 -1.4,-11.8 1.7,-23.4 1.1,-4.4 2.7,-12.5 3.4,-18 1.7,-12.1 4.5,-21.7 5.6,-18.9 0.4,1.1 0.8,4.8 0.9,8.4 z m -423.5,16.5 5.5,3.8 v 7.6 c 0.1,4.7 0.6,8.6 1.5,10.1 1.1,1.9 1.4,7.2 1.5,23.5 0,19.9 -0.1,21.2 -2.2,25.3 -2.3,4.3 -2.4,4.3 -6.3,3.7 -7.7,-1.3 -10.5,-2.3 -10.6,-3.8 0,-0.7 -0.2,-2.3 -0.4,-3.7 -0.3,-1.4 -1.1,-8.9 -2,-16.7 -1.7,-15.9 -1.8,-26.4 -0.4,-33.8 0.5,-2.8 1.4,-9.7 2,-15.3 l 1.2,-10.4 2.3,3 c 1.3,1.6 4.8,4.6 7.9,6.7 z m 393.4,-2.1 c 2.4,10.9 3.2,23.6 2,35 -1.7,17.2 -7.2,36.6 -10.4,36.6 -2.1,0 -3.2,-3.2 -6.7,-19.5 -1.6,-7.7 -4.1,-16.6 -5.3,-19.8 l -2.4,-5.7 4.8,-7.8 c 5,-8.2 8.5,-15.7 9.6,-21 0.6,-2.8 1,-3.2 3.9,-3.2 3.2,0 3.3,0.2 4.5,5.4 z m -365.8,23.4 c 5.7,3.7 13.4,8.5 17.2,10.5 l 6.7,3.8 v 28.1 28.1 l -9.2,-0.7 c -9.2,-0.7 -18.7,-2.5 -24,-4.5 L 541,1163 v -35.5 c 0,-19.5 0.4,-35.5 0.8,-35.5 0.4,0 5.5,3.1 11.3,6.8 z m 50.2,21.9 c 5,1.2 11,2.3 13.2,2.3 2.2,0 5.8,0.7 8,1.5 2.4,0.8 7.9,1.4 13.7,1.5 h 9.8 l -2.5,5.6 c -2.4,5.5 -2.5,6.3 -2.5,28.8 v 23.2 l -3,2.2 c -6,4.5 -14.1,3.7 -41.7,-3.9 l -11.3,-3.1 v -22 c 0,-17.9 0.3,-22.4 1.6,-24.9 0.8,-1.7 1.8,-6.2 2.1,-10.1 0.5,-6.3 0.8,-6.9 2,-5.2 0.8,1.1 4.7,2.6 10.6,4.1 z m 279.4,8.5 c 2.2,5.1 4.6,11.8 5.3,14.8 0.7,3 2.1,7.9 3.2,10.9 1.2,3.6 1.8,8.3 1.8,14 v 8.7 l -4.7,4.5 c -5.1,4.8 -11.5,9.2 -14.8,10.2 -1.1,0.3 -7.6,1.3 -14.4,2.2 -6.8,0.8 -14.7,2.4 -17.6,3.3 -4.5,1.6 -5.6,1.6 -7.1,0.5 -1.8,-1.3 -1.9,-3.4 -2.1,-28.6 -0.2,-15 0.1,-27.7 0.5,-28.4 0.4,-0.7 4.8,-2.7 9.8,-4.6 4.9,-1.9 14.8,-6.4 21.9,-10 7.2,-3.6 13.3,-6.6 13.6,-6.6 0.3,-0.1 2.3,4.1 4.6,9.1 z m -207.7,1.9 c 10.9,3.6 23.6,7.1 29.5,7.9 3.8,0.6 8.8,1.9 11,2.9 3.5,1.6 4.2,2.5 5.7,7.2 0.9,3 2.2,8.7 2.8,12.8 0.6,4 1.5,8.2 2,9.2 0.6,1 1,6 1,11.3 v 9.5 l -3.7,3 c -2.3,1.9 -5.8,3.5 -9.2,4.2 -6.6,1.4 -18.8,0.6 -24.6,-1.5 -2.2,-0.9 -6.8,-1.5 -10.3,-1.6 -4.6,0 -7.8,-0.7 -11.7,-2.5 -6.2,-3 -12,-8.9 -11,-11.4 1,-2.5 4.4,-19.9 7.1,-36.6 0.4,-2.2 1.4,-6 2.4,-8.5 0.9,-2.5 2,-5.3 2.4,-6.4 0.4,-1.2 1.1,-1.6 2.4,-1.1 0.9,0.4 2.8,1.1 4.2,1.6 z m 257.8,15.3 3.2,6.4 v 21.9 c 0,15.3 -0.5,23.9 -1.5,28.8 -2.7,12.9 -14.8,34.9 -18.9,34.3 -2.1,-0.3 -2.1,-0.6 -2,-25.8 l 0.1,-25.5 6.5,-19.5 c 3.7,-10.7 6.9,-21.2 7.3,-23.3 0.4,-2 1,-3.7 1.4,-3.7 0.4,0 2.2,2.9 3.9,6.4 z m -120.2,3.6 c 0.3,2.5 1.2,6.2 2,8.3 2.1,5.5 1.9,27.7 -0.2,32 -2.3,4.5 -5.3,7.6 -9.9,10 -3.7,2 -5.7,2.2 -27.9,2.5 -20.2,0.3 -24.6,0.1 -28.2,-1.3 -2.8,-1 -4.4,-2.3 -4.7,-3.8 -0.3,-1.2 -0.5,-12.1 -0.4,-24.2 0.2,-20.7 0.1,-22.1 -1.8,-23.6 -1.8,-1.6 -1.8,-1.7 1.5,-2.4 5.8,-1.3 22.3,-2 46.2,-2 H 812 Z m -282.8,11 c 3.7,2.1 4.2,2.8 4.2,5.8 0,6.4 3.1,24.4 5.1,29.3 1.5,3.9 1.9,7.4 1.9,15.9 v 11 h -2.5 c -5.8,0 -14.4,-7.5 -17,-15 -1.8,-5 -5.3,-20.4 -6.6,-29.4 -0.7,-4.5 -0.7,-16.2 0.1,-24.4 0,-0.1 0.9,0.2 2,0.8 1.7,0.9 2,0.8 2,-1 0,-1.9 0.4,-1.8 3.3,1.3 1.7,1.8 5.1,4.4 7.5,5.7 z m 36.7,19.5 c 11.5,4.8 11.9,5.3 14.2,17.8 0.8,4.5 2.6,12.7 4,18.2 3.1,12.8 4,22.4 2.1,24.8 -1.2,1.6 -1.9,1.7 -6.3,0.7 -4.5,-1 -18.1,-5.9 -26.1,-9.5 -1.8,-0.7 -4.8,-2.8 -6.8,-4.5 l -3.6,-3.2 v -9.2 c -0.1,-5 -0.7,-11.8 -1.5,-15.1 -0.9,-3.7 -1.5,-11.2 -1.5,-19.2 v -13.2 l 7.7,4.2 c 4.3,2.3 12.3,6 17.8,8.2 z m 35,11 c 3.9,0.8 15.7,3.8 26.3,6.7 l 19.2,5.2 v 7.1 c 0,3.8 0.7,8.8 1.5,11 0.8,2.2 1.4,6.9 1.5,10.4 0,5.1 0.6,7.4 2.6,10.9 l 2.6,4.5 -1.6,6.1 c -1,3.3 -2.2,6.6 -2.8,7.3 -1.4,1.7 -11.7,1.7 -17.6,-0.1 -2.6,-0.7 -8.3,-2.3 -12.7,-3.6 -4.4,-1.2 -11.1,-3.4 -15,-4.9 -7,-2.8 -7,-2.8 -9.2,-8.7 -1.2,-3.2 -2.2,-8.1 -2.2,-10.7 -0.1,-2.6 -0.9,-6.4 -1.8,-8.5 -1.3,-2.8 -1.7,-6.8 -1.7,-16.8 -0.1,-11.5 -0.3,-13.5 -2,-15.3 l -1.9,-2.1 h 3.9 c 2.1,0 7.1,0.7 10.9,1.5 z m 301.5,22.2 c 0,12.6 -1.3,22.8 -3.8,29.8 -2.2,6.4 -9.8,14 -18.5,18.4 -6,3 -7.5,3.3 -16.9,3.6 -6,0.1 -12,0.9 -14.3,1.7 -2.7,1 -8.4,1.6 -17.4,1.7 l -13.3,0.2 0.7,-2.8 c 2.1,-8.2 3.5,-16.3 3.5,-20.3 0,-2.5 0.7,-6.3 1.5,-8.5 0.8,-2.2 1.4,-5.3 1.5,-7 0,-1.6 1,-6.1 2.1,-10.1 l 2.2,-7.1 10.6,-0.6 c 5.8,-0.3 17.2,-2 25.3,-3.6 8.1,-1.7 16.2,-3.1 18,-3.1 1.8,-0.1 5.8,-0.7 8.8,-1.5 10.5,-2.6 10,-3.1 10,9.2 z m -234.6,-6.2 c 3.4,0.8 16.9,2.3 30.1,3.5 13.2,1.1 25.7,2.3 27.8,2.6 l 3.7,0.6 v 6.3 c 0,3.5 -0.7,9 -1.5,12.2 -0.8,3.1 -1.5,9.3 -1.5,13.6 0,7.3 -0.3,8.3 -3.9,14.5 -5,8.6 -9.7,11.2 -20.2,11.2 -3.9,0 -8,-0.5 -9.2,-1.1 -1.1,-0.7 -5.7,-1.6 -10.2,-2 -4.4,-0.5 -10.7,-1.7 -14,-2.7 l -6,-1.8 -0.6,-9 c -0.3,-4.9 -1.1,-10.2 -1.7,-11.7 -1.7,-4 -1.7,-37.7 0,-37.7 0.6,0 3.9,0.7 7.2,1.5 z m 147.5,24.9 -0.4,16.3 -4.5,8.7 c -4,7.8 -12.1,17.6 -14.7,17.6 -6.9,0.2 -40.4,0.3 -51.5,0.1 L 730,1275 v -5.6 c 0,-3.1 0.7,-8.3 1.5,-11.7 3.3,-14 4.7,-21.1 5.5,-28.9 0.5,-4.6 1.2,-9.3 1.6,-10.6 l 0.6,-2.2 h 38.5 38.5 z"
       id="path4739"
       inkscape:connector-curvature="0"
       style="fill:#000000;stroke:none;stroke-width:0.1" />
    <path
       d="m 1162.6,493.5 c -1.5,1.1 -5,1.5 -13.9,1.5 -7.1,0 -17.3,0.8 -25.1,2 -44.1,6.9 -59.5,12.3 -80.3,28.2 -5.1,3.9 -9.3,7.3 -9.3,7.7 0,0.3 -2.5,3.5 -5.6,7.1 -8.1,9.6 -21.2,36.4 -23,47 -0.3,1.9 -1.1,5.7 -1.9,8.5 -2.2,8.3 -5.7,33.7 -5.3,39 0.3,5.7 0,5.6 11.8,3 3.6,-0.7 9.9,-1.9 14,-2.5 4.1,-0.7 10.4,-1.6 14,-2.2 8.3,-1.3 16.4,-3.8 32.2,-10 18.7,-7.3 41.5,-21.4 67.6,-41.8 3.5,-2.8 7.2,-5 8.1,-5 1,0 2.7,-1.7 4,-4 1.2,-2.2 2,-4 1.7,-4 -0.2,0 -5.2,2.9 -10.9,6.5 -14.4,8.9 -32.1,16.1 -47.2,19.1 l -12,2.3 -6.7,-4.4 c -6.5,-4.3 -6.8,-4.7 -6.8,-8.5 0,-6.3 4,-12.8 12.8,-21.1 10,-9.4 20.5,-16.4 30.1,-20.2 4.2,-1.6 8.5,-3.6 9.6,-4.3 1.1,-0.8 2.9,-1.4 4.2,-1.4 1.2,0 2.5,-0.5 2.9,-1.2 1.5,-2.4 -13.3,0 -25.8,4.2 -15.5,5.1 -38.2,16.2 -42.5,20.7 -1.9,2 -3.4,2.9 -3.8,2.2 -0.4,-0.6 -0.1,-1.6 0.7,-2.2 0.8,-0.7 2.7,-3.3 4.2,-5.9 6.8,-12 23.2,-27.3 35.1,-32.8 9.7,-4.5 26.3,-9.7 53.8,-17.1 14.2,-3.8 26.1,-6.9 26.3,-6.9 0.2,0 0.4,-1.1 0.4,-2.5 0,-2.4 -0.3,-2.5 -5.7,-2.5 -3.5,0.1 -6.6,0.6 -7.7,1.5 z"
       id="path4741"
       inkscape:connector-curvature="0"
       style="fill:#000000;stroke:none;stroke-width:0.1" />
    <path
       d="m 916.5,729.5 c -6.6,1.3 -18.3,3.1 -26,4 -7.7,0.9 -16.3,2.2 -19.1,3 -2.8,0.8 -9,1.8 -13.8,2.1 -4.8,0.4 -8.9,1 -9.1,1.4 -0.8,1.3 15.8,3 29.2,3 13.2,0 23.6,-1.4 32.8,-4.5 5.7,-1.9 19.5,-9.4 19.5,-10.7 0,-1 0.9,-1.1 -13.5,1.7 z"
       id="path4743"
       inkscape:connector-curvature="0"
       style="fill:#000000;stroke:none;stroke-width:0.1" />
    <path
       d="m 841.3,735.6 c -0.7,1.8 1.1,3.9 2.6,3 1.7,-1.1 1.3,-4.6 -0.4,-4.6 -0.9,0 -1.8,0.7 -2.2,1.6 z"
       id="path4745"
       inkscape:connector-curvature="0"
       style="fill:#000000;stroke:none;stroke-width:0.1" />
    <path
       d="m 738.9,872.9 c -7.4,1.5 -16.6,9.6 -19,16.8 -1.5,4.7 -0.5,5.2 2.7,1.4 3.8,-4.5 9.9,-7.4 14.3,-6.8 2,0.2 5.8,1.9 8.6,3.6 2.7,1.7 5.4,3.1 6.1,3.1 0.6,0 1.4,-2.3 1.7,-5.2 0.6,-5.2 0.6,-5.4 -3.5,-9.5 -4.3,-4.4 -4.8,-4.6 -10.9,-3.4 z"
       id="path4747"
       inkscape:connector-curvature="0"
       style="fill:#000000;stroke:none;stroke-width:0.1" />
    <path
       d="m 918.5,1280.2 c -2.5,2.9 -7.5,9.6 -11.1,14.9 -3.5,5.3 -7.4,10.5 -8.5,11.5 -1.2,1 -10.1,11.3 -19.8,22.9 -25.2,30 -31.3,36.2 -48.1,48.1 -17.9,12.7 -22.3,15 -25.6,13.5 -2.5,-1.1 -3.4,-5.7 -1.5,-7.7 1.6,-1.6 6.1,-21.9 6.1,-27.2 0,-2.7 0.7,-6.6 1.5,-8.5 1.5,-3.6 2.1,-14.7 0.9,-14.7 -1.4,0 -12.5,10.1 -30.4,27.5 -26.4,25.7 -39.3,35.4 -64.5,48.6 l -13.6,7.1 2,-4.8 c 1,-2.7 4.4,-11 7.5,-18.4 3.1,-7.4 6.5,-15.8 7.5,-18.6 1,-2.9 3,-6.8 4.4,-8.8 2.6,-3.9 2.6,-8.2 0.1,-7.2 -0.8,0.3 -6.7,4.5 -13.1,9.4 -41.9,31.6 -69.6,48.9 -109.8,68.7 -20.4,10 -30.9,14.6 -43,18.5 -8.8,2.9 -17.7,6.1 -19.8,7.2 -2.2,1.1 -4.1,1.7 -4.4,1.4 -1.3,-1.2 -0.4,-29.5 1.1,-36.6 2.2,-10.4 2.4,-92.6 0.2,-96.8 -0.8,-1.5 -1.9,-7.4 -2.5,-13.2 -0.5,-5.8 -1.5,-12.5 -2,-15 -0.6,-2.5 -1.1,-7.9 -1.1,-12 -0.1,-4.1 -0.5,-8.4 -1,-9.5 -0.7,-1.9 -0.8,-1.8 -1.4,0.5 -0.3,1.4 -0.7,27.5 -1,58 -0.3,46.8 -0.6,56.4 -2,61.5 -0.8,3.3 -1.6,8.6 -1.6,11.8 0,3.2 -0.5,6.8 -1.1,7.9 -0.7,1.2 -1.5,5.3 -2,9.2 -1.6,13.7 -13.1,46.8 -23.7,67.8 -0.8,1.7 5.4,0.6 15.6,-2.6 5.9,-1.9 15.7,-4.9 21.7,-6.6 11.8,-3.5 31.8,-10.4 48,-16.6 14.9,-5.6 49.5,-23.3 63,-32.2 6.6,-4.3 16.9,-11.5 22.8,-16 11.2,-8.5 14.6,-10.7 15.3,-9.9 1.1,1.1 -12.4,29.7 -19.5,41.6 -2.8,4.6 -4.9,8.6 -4.7,8.9 0.6,0.6 14.7,-5.9 33.6,-15.4 32.3,-16.3 51.2,-29.8 77.3,-55.2 10.4,-10.1 19,-18.2 19.3,-18 0.2,0.3 -0.3,2.9 -1.1,5.9 -0.8,3 -1.8,7 -2.1,8.9 -0.3,1.9 -2.3,9 -4.6,15.8 -2.2,6.8 -3.8,12.6 -3.4,12.9 0.8,0.8 25.8,-8.8 36.1,-13.9 10.9,-5.4 22.7,-13.4 30.6,-20.6 3.6,-3.4 7.8,-6.4 9.2,-6.7 1.6,-0.5 5.3,-3.9 9.5,-8.9 19.1,-22.6 29.1,-37.2 39.4,-57.3 3.9,-7.6 10.2,-18.5 13.9,-24.2 6.3,-9.5 7.7,-12.1 6.5,-12.1 -0.3,0 -2.5,2.4 -5.1,5.2 z"
       id="path4749"
       inkscape:connector-curvature="0"
       style="fill:#000000;stroke:none;stroke-width:0.1" />
  </g>
</svg>
